# xmcd
#
# Track frame offsets:
#	150
#	24154
#	36709
#	58369
#	71869
#	86494
#	95494
#	108995
#	124713
#	147975
#	159135
#	177134
#	200197
#	210321
#	239551
#	258128
#	268175
#	280452
#	291548
#	312598
#	333912
#
# Disc length: 4786 seconds
#
# Revision: 0
# Processed by: cddbd v1.5.2PL0 Copyright (c) Steve Scherf et al.
# Submitted via: EasyCDDAExtractor 10.2.0.1
#
DISCID=4b12b015
DTITLE=Various Artist - Ben In The Mix 108 - Good Times
DYEAR=2009
DGENRE=House
TTITLE0=Marcus Schossow and Thomas Sagstad - Spring Break Hook Up ///original mi
TTITLE0=x
TTITLE1=Nathan G ft. Revelino and Mimi - Take A Look Inside ///deeper vocal mix
TTITLE2=Wamdue Project ft. Jonathan Mendelsohn - King Of My Castle Vs Children
TTITLE2=Mash Up ///dex diamond booty mix
TTITLE3=Luke Chable - Lime ///original mix
TTITLE4=BT - Rose Of Jericho ///adam k and soha remix
TTITLE5=Gui Boratto - No Turning Back ///extended mix
TTITLE6=Sharam ft. Kid Cudi - She Came Along ///reup club mix
TTITLE7=Deadmau5 and Kaskade - I Remember ///original vocal mix
TTITLE8=Shane 54 and Myon - All Night Rock and Roll ///original mix
TTITLE9=David Guetta ft. Kelly Rowland - Love Takes Over ///original electro m
TTITLE9=ix
TTITLE10=Loose Change ft. Donna - Straight Form The Heart ///gambafreaks vs ii
TTITLE10=i sound academy 70s mix
TTITLE11=Yanou - Brighter Day ///bastian van shield remix
TTITLE12=La Roux - Bulletproof ///dean coleman and nima nas 100 proof vocal mix
TTITLE13=Wheels and Disco - Good Times ///club mix
TTITLE14=Belmond and Parker - Ping Pong ///max farenthide remix
TTITLE15=Bacon Popper - Free 2009 ///mat's remix 
TTITLE16=Wolfgang Gartner - Push and Rise ///original mix
TTITLE17=Rico Tubbs - Hip Rave Anthem ///original mix
TTITLE18=Futureshock - Pride's Paranoia ///eric prydz mix
TTITLE19=Happy Clappers - I Believe ///vandalism club mix
TTITLE20=The Partysquad ft. Doyle Bramhall II and Erykah Badu - What You Live Fo
TTITLE20=r ///laidback luke remix
EXTD=
EXTT0=
EXTT1=
EXTT2=
EXTT3=
EXTT4=
EXTT5=
EXTT6=
EXTT7=
EXTT8=
EXTT9=
EXTT10=
EXTT11=
EXTT12=
EXTT13=
EXTT14=
EXTT15=
EXTT16=
EXTT17=
EXTT18=
EXTT19=
EXTT20=
PLAYORDER=
